<?xml version="1.0" encoding="UTF-8"?>
<svg viewBox="0 0 565.25873 487.99985" xmlns="http://www.w3.org/2000/svg" xmlns:xlink="http://www.w3.org/1999/xlink">
 <defs>
  <filter id="k" x="-.07366" y="-.27758" width="1.1473" height="1.5552">
   <feGaussianBlur stdDeviation="19.6197"/>
  </filter>
  <filter id="j" x="-.35819" y="-.72735" width="1.7164" height="2.4547">
   <feGaussianBlur stdDeviation="23.3247"/>
  </filter>
  <filter id="i" x="-.26995" y="-.13159" width="1.5399" height="1.2632">
   <feGaussianBlur stdDeviation="11.4773"/>
  </filter>
  <filter id="h" x="-.05855" y="-.32292" width="1.1171" height="1.6458">
   <feGaussianBlur stdDeviation="4.9315"/>
  </filter>
  <linearGradient id="b">
   <stop stop-color="#ececec" offset="0"/>
   <stop stop-color="#bdbdbd" offset="1"/>
  </linearGradient>
  <linearGradient id="g" x1="598.78" x2="672.62" y1="374.07" y2="277.45" gradientTransform="matrix(.94352 -.27152 -.03087 .82285 -65.328 184.78)" gradientUnits="userSpaceOnUse">
   <stop stop-color="#bdbdbd" offset="0"/>
   <stop stop-color="#ececec" offset="1"/>
  </linearGradient>
  <radialGradient id="f" cx="376.18" cy="991.04" r="320.25" gradientTransform="matrix(1 0 0 .26677 0 605.78)" gradientUnits="userSpaceOnUse">
   <stop stop-color="#ddd" offset="0"/>
   <stop stop-color="#b2b2b2" offset="1"/>
  </radialGradient>
  <radialGradient id="a" cx="388.75" cy="1138.2" r="320.25" gradientTransform="matrix(1 0 0 .26677 0 605.78)" gradientUnits="userSpaceOnUse">
   <stop stop-color="#2b2b2b" offset="0"/>
   <stop stop-color="#666" offset="1"/>
  </radialGradient>
  <radialGradient id="c" cx="280" cy="121.9" r="171.75" gradientTransform="matrix(1.4207 .00457 -.00042194 .13109 -117.74 177.51)" gradientUnits="userSpaceOnUse">
   <stop stop-color="#784421" offset="0"/>
   <stop stop-color="#502d16" offset="1"/>
  </radialGradient>
  <radialGradient id="e" cx="280" cy="139.51" r="100" gradientTransform="matrix(2 0 0 1.4 -280 63.055)" gradientUnits="userSpaceOnUse" xlink:href="#b"/>
  <radialGradient id="d" cx="280.77" cy="46.181" r="190.5" gradientTransform="matrix(1.9342 1.2979e-6 -6.6157e-8 .09859 -262.28 170.03)" gradientUnits="userSpaceOnUse" xlink:href="#b"/>
 </defs>
 <path transform="matrix(.77069 0 0 .75075 -9.7099 -231.29)" d="m698.96 826.18c0 46.843-143.11 84.817-319.64 84.817s-319.64-37.974-319.64-84.817 143.11-84.817 319.64-84.817 319.64 37.974 319.64 84.817z" fill="url(#a)" filter="url(#k)"/>
 <path transform="matrix(.77069 0 0 .75075 -9.7099 -231.29)" d="m698.96 826.18c0 46.843-143.11 84.817-319.64 84.817s-319.64-37.974-319.64-84.817 143.11-84.817 319.64-84.817 319.64 37.974 319.64 84.817z" fill="url(#a)"/>
 <path transform="matrix(.82763 0 0 .72394 -32.607 -217.1)" d="m698.96 826.18c0 46.843-143.11 84.817-319.64 84.817s-319.64-37.974-319.64-84.817 143.11-84.817 319.64-84.817 319.64 37.974 319.64 84.817z" fill="#f2f2f2"/>
 <path transform="matrix(.82763 0 0 .72394 -31.307 -221.64)" d="m698.96 826.18c0 46.843-143.11 84.817-319.64 84.817s-319.64-37.974-319.64-84.817 143.11-84.817 319.64-84.817 319.64 37.974 319.64 84.817z" fill="url(#f)"/>
 <path transform="matrix(.55514 0 0 .37538 74.652 69.745)" d="m698.96 826.18c0 46.843-143.11 84.817-319.64 84.817s-319.64-37.974-319.64-84.817 143.11-84.817 319.64-84.817 319.64 37.974 319.64 84.817z" fill="#979797" fill-opacity=".3915" stroke="#b7b7b7" stroke-width="8.4782"/>
 <path transform="matrix(1.1279 0 0 1 -138.88 -427.33)" d="m476.47 810.8a101.07 18.326 0 1 1 -202.14 0 101.07 18.326 0 1 1 202.14 0z" filter="url(#h)" opacity=".7655"/>
 <g transform="translate(5.7566 -75.252)">
  <path d="m439.17 257.67c-25.438 43.93-39.387 89.35-47.403 133.12 44.248-4.7547 95.39-22.438 132.79-58.967 18.907-18.622 29.484-45.42 18.197-61.228-15.04-22.507-51.273-23.332-83.898-17.355-6.5259 1.2098-13.099 2.7142-19.685 4.4346zm15.941 21.332c23.79-4.055 50.966-4.9496 62.368 11.379 5.0006 12.809-9.9013 29.252-23.86 38.755-20.119 15.125-43.273 24.474-65.505 30.12-2.8005-9.9757 5.7448-22.515 7.5174-33.583 5.1304-15.574 11.687-31.204 19.48-46.67z" fill="url(#g)"/>
  <path d="m80.393 195.9s-0.39267 276.47 199.61 276.47 199.61-277.25 199.61-277.25 0.39267 37.251-199.61 37.251-199.61-36.466-199.61-36.466z" fill="url(#e)"/>
  <path d="m82.394 226.53c6.6019 8.6957 38.99 30.031 198.17 30.031 159.22 0 191.58-21.34 198.17-30.031-12.31 9.0501-54.344 24.5-198.17 24.5-143.8 0-185.85-15.449-198.17-24.5z" fill="#000080"/>
  <path d="m80 197.36s0-35 200-35 200 35 200 35 0 35-200 35-200-35-200-35z" fill="#e6e6e6"/>
  <path d="m85.603 197.36s0-30.905 194.4-30.905 194.4 30.905 194.4 30.905 0 30.905-194.4 30.905-194.4-30.905-194.4-30.905z" fill="url(#d)" stroke="#d6d6d6" stroke-width=".95049"/>
  <path d="m280 183.25c-171.74 0-171.75 28.458-171.75 28.458s-3.1197-2.691 3.4524 1.0026c25.74 7.2057 77.281 15.571 168.3 15.571s144.13-7.9724 169.87-15.178c6.5721-3.6936 2.667-1.3953 2.667-1.3953s-0.79105-28.458-172.54-28.458z" fill="url(#c)"/>
  <path d="m95.984 303.08c6.1383 9.0173 36.252 31.142 184.25 31.142 148.04 0 178.13-22.129 184.25-31.142-11.446 9.3848-50.528 25.406-184.25 25.406-133.7 0-172.8-16.02-184.25-25.406z" fill="#000080"/>
  <path d="m81.098 218.32c6.6266 8.6924 39.135 30.02 198.91 30.02 159.82 0 192.29-21.332 198.91-30.02-12.356 9.0466-54.547 24.491-198.91 24.491-144.33 0-186.54-15.443-198.91-24.491z" fill="#000080"/>
  <path d="m102.99 222.45c3.9285 56.925-4.9115 78.268 32.841 131.88 16.542 22.012 46.792 63.312 46.792 63.312-21.238-29.599-34.238-72.456-39.419-109.19-1.9791-20.594-1.0488-46.93-3.4225-76.2-17.664-4.7084-24.543-4.722-36.791-9.8007z" fill="#e6e6e6" opacity=".75"/>
  <path transform="translate(-19.959 -11.566)" d="m378.54 179.06c0 21.253-34.985 38.482-78.142 38.482s-78.142-17.229-78.142-38.482 34.985-38.482 78.142-38.482 78.142 17.229 78.142 38.482z" fill="#e6e6e6" filter="url(#j)" opacity=".708"/>
  <path transform="matrix(.52176 -.06477 .06994 .46757 123.87 114.8)" d="m242.12 217.16 40.764-28.929 24.764-28.825c3.9909-10.14 5.5983-21.21 4.6561-32.066-0.97687-11.256-4.6964-22.265-10.747-31.807-4.1829-4.7891-7.8969-9.9877-11.071-15.497-2.354-4.0854-4.4218-8.3675-5.6969-12.907s-1.7375-9.3584-0.8775-13.994c0.89846-4.843 3.2451-9.3931 6.5915-13.008s7.6742-6.2924 12.37-7.7785c8.8982-2.8158 19.094-1.1507 26.634 4.3499l34.784 23.86-26.42-30.901-19.571-13.45-28.653 0.64575-24.714 24.584-1.751 24.736 6.7041 32.146 22.213 34.43-7.0266 23.206-15.12 21.217-29.427 39.856 1.5945 0.13101" fill="#e9c6af" filter="url(#i)" opacity=".5"/>
 </g>
</svg>
